# xmcd
#
# Track frame offsets:
#	150
#	13179
#	27325
#	40195
#	55760
#	68192
#	82466
#	96559
#	111115
#	126719
#	141742
#	159198
#
# Disc length: 2344 seconds
# Revision: 0
# Processed by: cddbd v1.5.2PL0 Copyright (c) Steve Scherf et al.
# Submitted via: dBpowerAMP V12.0
#
DISCID=b509260c
DTITLE=Matt Dylan - Matt Dylan
DYEAR=2010
DGENRE=Country
TTITLE0=Down Here
TTITLE1=Barns
TTITLE2=Changes
TTITLE3=Bourbon and The Bible
TTITLE4=I Can Tell By The Way You Dance
TTITLE5=Being Bad
TTITLE6=The Price
TTITLE7=Carolina Moonshine
TTITLE8=Overcome
TTITLE9=Beautiful Beginnings
TTITLE10=You Got Me
TTITLE11=Pasture Party
EXTD=
EXTT0=
EXTT1=
EXTT2=
EXTT3=
EXTT4=
EXTT5=
EXTT6=
EXTT7=
EXTT8=
EXTT9=
EXTT10=
EXTT11=
PLAYORDER=
